<svg xmlns="http://www.w3.org/2000/svg" viewBox="0 0 1024 1024"><defs><style>.cls-1{fill:#6bbf59;}</style></defs><g id="Layer_2" data-name="Layer 2"><g id="Layer_1-2" data-name="Layer 1"><g id="_YOUR_ICON_HERE_" data-name="[YOUR ICON HERE]"><path class="cls-1" d="M461.84326,337.92847c-122.563,0-223.55029,102.71215-223.55029,225.27539,0,123.42743,100.9873,223.55029,223.55029,223.55029,123.42725,0,224.41211-100.12286,224.41211-223.55029C686.25537,440.64062,585.27051,337.92847,461.84326,337.92847Zm0,284.39984a59.6754,59.6754,0,0,1-59.55664-59.55658c0-33.6593,26.75684-60.41852,59.55664-60.41852a60.04824,60.04824,0,0,1,60.41846,60.41852C522.26172,595.57141,495.50488,622.32831,461.84326,622.32831Z"/><path class="cls-1" d="M1006.5,147.48328A217.46556,217.46556,0,0,0,876.5166,17.4917C821.18311,0,769.80078,0,666.99072,0H356.99219c-102.793,0-154.1753,0-209.50879,17.4917A217.46556,217.46556,0,0,0,17.5,147.48328C0,202.82544,0,254.21655,0,357.009V666.991C0,769.792,0,821.18311,17.5,876.5166a217.43057,217.43057,0,0,0,129.9834,129.98316C202.81689,1024,254.19922,1024,356.99219,1024H666.99072c102.81006,0,154.19239,0,209.52588-17.50024A217.43057,217.43057,0,0,0,1006.5,876.5166C1024,821.18311,1024,769.792,1024,666.991V357.009C1024,254.21655,1024,202.82544,1006.5,147.48328Zm-544.65674,725.582c-172.62451,0-309.86133-137.23682-309.86133-309.86145S289.21875,251.61621,461.84326,251.61621s310.72315,138.963,310.72315,311.58765S634.46777,873.06531,461.84326,873.06531ZM769.603,373.90436A367.02129,367.02129,0,0,0,649.15771,253.351V194.58765a413.65621,413.65621,0,0,1,179.1294,179.31671Zm55.41308-75.72071A449.61714,449.61714,0,0,0,724.87842,198.00244V150.93463a482.814,482.814,0,0,1,147.13965,147.249Z"/></g></g></g></svg>