<svg xmlns="http://www.w3.org/2000/svg" viewBox="0 0 1111.66016 360.95776"><defs><style>.cls-1{fill:#6bbf59;}</style></defs><g id="Layer_2" data-name="Layer 2"><g id="Layer_1-2" data-name="Layer 1"><path class="cls-1" d="M78.78857,151.97681c-29.18115,0-48.51318,17.50879-51.06689,20.42675l-4.377-12.40185a5.91326,5.91326,0,0,0-5.83594-4.37695H6.93066A7.1744,7.1744,0,0,0,0,162.55493V294.59839a7.17484,7.17484,0,0,0,6.93066,6.93066H25.898c6.20117,0,8.38965-2.18847,8.38965-6.93066V205.59692c1.82373-5.10693,17.5083-21.88574,40.48828-21.88574,18.96777,0,30.27539,12.7666,30.27539,36.11084v74.77637a6.926,6.926,0,0,0,6.93066,6.93066h20.791a7.17484,7.17484,0,0,0,6.93066-6.93066V221.281C139.70361,183.34644,123.28955,151.97681,78.78857,151.97681Z"/><path class="cls-1" d="M183.61719,155.62476h20.7915a6.93066,6.93066,0,0,1,6.93066,6.93066v132.043a6.93066,6.93066,0,0,1-6.93066,6.93066h-20.791a6.93066,6.93066,0,0,1-6.93066-6.93066V162.55493A6.93018,6.93018,0,0,1,183.61719,155.62476Z"/><path class="cls-1" d="M322.1499,151.97681c-26.99219,0-41.94726,15.31982-44.501,17.87353l-3.64747-9.48388c-1.459-3.28272-3.28271-4.7417-6.20068-4.7417H256.85791a7.1744,7.1744,0,0,0-6.93066,6.93017V354.0271a7.17484,7.17484,0,0,0,6.93066,6.93066h20.42627c5.10693,0,7.66016-2.918,7.66016-6.93066V295.32788a73.03286,73.03286,0,0,0,35.74658,9.84863c39.75879,0,71.12842-33.55761,71.12842-76.23535C391.81934,186.9939,362.27393,151.97681,322.1499,151.97681ZM316.314,273.80737a54.05308,54.05308,0,0,1-32.09912-10.57812V204.86743c1.459-4.37744,12.40186-21.15625,33.55811-21.15625,24.80371,0,40.12353,20.79151,40.12353,45.23C357.89648,253.74585,340.38818,273.80737,316.314,273.80737Z"/><path class="cls-1" d="M493.76514,151.97681c-26.99219,0-41.94727,15.31982-44.501,17.87353l-3.64746-9.48388c-1.459-3.28272-3.28272-4.7417-6.20068-4.7417H428.47314a7.17441,7.17441,0,0,0-6.93066,6.93017V354.0271a7.17484,7.17484,0,0,0,6.93066,6.93066h20.42627c5.10694,0,7.66016-2.918,7.66016-6.93066V295.32788a73.0329,73.0329,0,0,0,35.74658,9.84863c39.75879,0,71.12891-33.55761,71.12891-76.23535C563.43506,186.9939,533.88916,151.97681,493.76514,151.97681ZM487.9292,273.80737a54.053,54.053,0,0,1-32.09912-10.57812V204.86743c1.459-4.37744,12.40185-21.15625,33.5581-21.15625,24.80371,0,40.123,20.79151,40.123,45.23C529.51123,253.74585,512.00342,273.80737,487.9292,273.80737Z"/><path class="cls-1" d="M620.87842,79.22827h-20.791c-3.64746,0-6.92969,3.76087-6.92969,7.94019V293.58887c0,4.17877,3.28223,7.94018,6.92969,7.94018h20.791c3.64844,0,6.93164-3.76141,6.93164-7.94018V87.16846C627.81006,82.98914,624.52686,79.22827,620.87842,79.22827Z"/><path class="cls-1" d="M687.51709,254.47437a25.35172,25.35172,0,1,0,25.5332,25.5332A25.29972,25.29972,0,0,0,687.51709,254.47437Z"/><path class="cls-1" d="M752.6582,155.62476h20.7915a6.93066,6.93066,0,0,1,6.93066,6.93066v132.043a6.93066,6.93066,0,0,1-6.93066,6.93066h-20.791a6.93066,6.93066,0,0,1-6.93066-6.93066V162.55493A6.93018,6.93018,0,0,1,752.6582,155.62476Z"/><path class="cls-1" d="M938.31787,42.54858c-72.95215,0-130.94922,58.72657-130.94922,131.67871s57.99707,130.94922,130.94922,130.94922,131.31348-57.99707,131.31348-130.94922A131.07762,131.07762,0,0,0,938.31787,42.54858Zm0,226.15235c-51.7959,0-94.47363-42.3125-94.47363-94.47364,0-51.79589,42.67773-95.20263,94.47363-95.20263,52.16113,0,94.83789,43.40674,94.83789,95.20263C1033.15576,226.38843,990.479,268.70093,938.31787,268.70093Z"/><path class="cls-1" d="M938.31787,148.51147a25.35173,25.35173,0,1,0,25.5332,25.53321A25.29972,25.29972,0,0,0,938.31787,148.51147Z"/><path class="cls-1" d="M1017.478,18.448V43.28174a155.10465,155.10465,0,0,1,50.90088,50.94653h24.80029A174.814,174.814,0,0,0,1017.478,18.448Z"/><path class="cls-1" d="M1091.79688,62.22827h19.86328A204.04191,204.04191,0,0,0,1049.478,0V19.89111A190.01659,190.01659,0,0,1,1091.79688,62.22827Z"/></g></g></svg>